<svg class="text-teal-800" xmlns="http://www.w3.org/2000/svg" fill="teal" enable-background="new 0 0 231.7 260.3" version="1.1" viewBox="0 0 231.7 260.3" x="0px" y="0px" role="img" aria-label="Plant in Pot">
  <g id="__id167_smreg7zguf"><path d="m230.7 61.3c-16.1-0.3-31.4 4.1-44.4 13.9-6.5 4.9-11.8 11.2-18.5 15.8-5.5 3.8-12.6 4.6-17.8 8.6-4.4 3.4-6.4 9.1-8.1 14.2-3.5 10.7-5.5 18.5-12.6 27.6-1.2 1.6-2.2 3.1-3.1 4.6 5.3-13.4 10.3-28.8 9.7-43.3-0.1-3.4-1-6.1-1.4-9.5-1.3-8.9-0.5-15 0.5-23.6 0.6-5.7 1.1-11-0.3-16.7-3.1-12.2-12.1-19.3-22.5-25.3-7.9-4.5-15.1-8.8-21.8-15.1-4.9-4.6-9.2-9-15.1-12.5-0.8-0.4-1.8 0.3-1.5 1.2 3.9 13.1 4.1 24.9 0.4 38-2 7.1-5.2 14.1-5.7 21.6-1 14.5 8.6 23 15.5 34.6 4.7 8 3.5 16.4 3.2 24.6-2.3-2.6-4.2-2.8-8-3.8-6 1-11.8-0.2-17.3-3.8-1.2-1.2-2.4-2.4-3.5-3.7-3-2.7-5-6.4-8.3-8.9-4.5-3.5-9.2-4.6-14.8-5.2-11.6-1.3-22.7-1.7-34-4.9-1.1-0.3-1.7 1.2-0.8 1.9 6.6 4.4 12.8 8.8 15.7 16.9 1.7 4.9 1.4 10.3 2.3 15.4 0.7 4 1.6 8 3.9 11.4 6.8 9.8 20 9.9 29.8 14.5 8.2 3.9 9.1 8.1 12.6 16 0.4 1 0.3 2.9 1.1 3.7 2.2 2.7 3.7 2.9 6.7 4 6.3 2.5 14 1.6 20.6 3.8 10.3 3.3 19.1 9 26.9 16.4-5.5 0-10.9-0.1-16.4-0.1-1.3 0-1.3 2 0 2 8.2 0.1 16.4 0.1 24.5 0.2 6.4 0 19.6-2.6 23 4 2.1 4.1-2 19.2-2.5 24.2-1.1 10.3 0 26.5-11.8 31.7-7.9 3.5-22.8 1.7-30.9 0.4-12.5-2-15.8-9.6-17-21.7-0.8-7.9-1.1-15.8-1.1-23.7 0-10.9 0.7-17.8 13.2-17.8 1.3 0 1.3-2 0-2-3.4 0-11.2-1.7-13.9 1-3.9 3.9-1.4 20.8-1.3 26 0.3 13.3-2.6 34.5 12.8 38.9 11.2 3.2 39.1 7.3 47.3-3.8 3.6-4.9 3.1-13.7 3.6-19.2 1.4-12.9 2.7-25.8 4.1-38.7 0.1-0.6-0.5-1-1-1-10.2-0.1-20.4-0.1-30.6-0.2 0.2-0.3 0.1-0.7-0.2-1.1-7.1-6.7-15-12.2-24.2-15.8-5.3-2.1-10.5-2.8-16-4.2-7-1.8-11.5-6.3-15.7-12.1-4-5.5-6-9.5-12.9-12.7-15.9-7.3-30.1-6.3-33.1-27.9-1.1-7.7-1.8-14.9-7.1-21-1.7-1.9-6.7-6.7-7.9-6 1.6-0.9 11.2 2.3 13.4 2.6 7.5 1 14.8 0.6 22.2 2.6 8.5 2.3 11.6 7.5 17.4 13.4 2.3 2.3 4.8 4.9 7.9 6.1 6 2.3 15.9-1.2 20.2 4.3 0.2 0.3 0.6 0.4 0.9 0.4-0.1 5.9 0.6 11.7 4.7 17.2 5.2 6.9 12.2 12.6 17.5 19.5 4.6 5.9 8.6 12.1 12.2 18.6 0.3 4 0.6 7.9 0.9 11.9 0.1 1.3 2.1 1.3 2 0-0.2-2.5-0.3-5-0.5-7.5l1.8 3.6c0.3 0.6 0.9 0.6 1.3 0.4-0.3 0.8-0.6 1.5-0.8 2.3-0.5 1.2 1.5 1.8 2 0.5 6.3-16.9 13.2-33.7 23-49 1.5-2.4 3.1-4.7 4.8-7 0.4 0.3 0.9 0.4 1.3 0 6.9-6.2 12.6-12.8 17.6-20.6 0.7-1-0.8-2-1.6-1.2-22.5 19.7-35.4 46.2-45.8 73.7v-0.1c-1.3-2.6-2.6-5.1-4-7.6-1.6-20.2-4.1-40.3-7.7-60.2-3.7-20.5-8.7-40.3-21.2-57.4-0.4-0.6-1.2-0.5-1.6-0.2-0.3-0.6-0.6-1.2-1-1.8 0.7 1.1 2.5 0.1 1.8-1-0.1-0.1-0.2-0.2-0.2-0.4-0.3-0.4-0.7-0.6-1.2-0.5-0.2 0-0.3 0.1-0.5 0.1-0.5 0.1-0.7 0.6-0.7 1-0.8 6.1 3.1 14.4 5.4 20 3.2 7.8 7.5 14.9 12.6 21.6 0.2 0.3 0.5 0.4 0.7 0.4 1.6 6.1 2.8 12.4 4 18.6 3.3 18.4 5.6 36.9 7.3 55.5-4.6-7.8-9.9-15.3-15.9-22.1-2.4-2.8-5.1-5.3-7.6-8-7.2-7.8-7.9-14-7.7-24.7 0.1-4.7 1.4-8.9 0.3-13.6-2.5-11.3-12.6-18.5-16.9-28.8-7.3-17.5 4.3-33 5.6-50.4 0.2-2.9-2.9-18.6-1.7-20 2.4-2.7 11.1 8.1 14.6 11.3 10.4 9.3 24.8 13.3 34.1 23.9 13.3 15.2 4 33.1 6.3 50.7 2.6 19.9-1 37.4-8.5 56-0.4 1 0.7 1.5 1.5 1.1-4.4 9.6-2.7 18.9 1.1 30.4 0.4 1.2 2.4 0.7 2-0.5-4.3-13-5.8-23.5 2.7-35.4 3.2-4.5 6.6-8 8.7-13.4 1.9-4.9 2.8-10.1 4.4-15.1 3.6-11 8.4-13.1 17.9-17.4 11.3-5.1 18.9-15.6 29.1-22.4 7-4.7 15-8.1 23.2-9.8 1.9-0.4 11.9-2.6 12.7-0.8 0.5 1.1-5.3 5.9-5.8 6.4-8.7 9-12.5 17.7-15.2 29.8-2.3 10.2-6.4 18.2-15.8 23.5-5.1 2.9-11.5 3.4-16.1 7-8 6.3-4.4 17.1-7.3 25.8-5.4 16.5-24.9 20.2-36.7 31.1-1 0.9 0.5 2.3 1.4 1.4 10-9.2 24.7-12.8 33.3-23.5 3-3.7 4.6-7.4 5.3-12.1 0.5-3.3-0.4-6.9 0.4-10.1 3.3-14.2 8.7-12.4 17.2-16.2 8-3.6 14.9-9.7 18.2-18 3.2-8 2.6-16.7 6.8-24.5 4.6-8.5 12-15.2 19.1-21.6 0.3-0.4-0.3-1.5-1.1-1.6zm-62.4 57.2c1.4-1.5 2.5-2.7 2.9-3.1-0.5 0.6-2.3 2.6-5.9 6.8-1.6 1.8-3.2 3.6-5 5.3 2.6-3.1 5.3-6.1 8-9zm-68.4-38.6c-2.3-5-3.4-11.3-5.4-16.7 6.6 9.7 10.9 20.3 14 31.3-3.2-4.6-6.1-9.4-8.6-14.6zm-19.4 68.8c-6.5-5.7-13.2-11.5-20.6-16 0.9 0.8-0.1 2.5-1.1 1.7-3.5-2.6-7.1-5.2-10.6-7.7-1.1-0.8-0.2-2.3 1-1.8 15.4 6.8 27.5 17.7 39.9 28.8 10.9 9.8 26.8 19.7 32.4 33.8 0.5 1.2-1.5 1.7-2 0.5-6-15.2-27-28.8-39-39.3z" ></path>
  </g>
</svg>